G04 EAGLE Gerber RS-274X export*
G75*
%MOIN*%
%FSLAX34Y34*%
%LPD*%
%INSilkscreen Top*%
%IPPOS*%
%AMOC8*
5,1,8,0,0,1.08239X$1,22.5*%
G01*
%ADD10C,0.005000*%
%ADD11C,0.004000*%
%ADD12C,0.000000*%
%ADD13C,0.008000*%
%ADD14C,0.006000*%
%ADD15C,0.002000*%

G36*
X18079Y23064D02*
X18079Y23064D01*
X18094Y23071D01*
X18107Y23081D01*
X18117Y23094D01*
X18123Y23109D01*
X18125Y23125D01*
X18123Y23141D01*
X18117Y23156D01*
X18107Y23169D01*
X18094Y23179D01*
X18079Y23186D01*
X18063Y23188D01*
X18062Y23188D01*
X18046Y23186D01*
X18031Y23179D01*
X18018Y23169D01*
X18008Y23156D01*
X18002Y23141D01*
X18000Y23125D01*
X18002Y23109D01*
X18008Y23094D01*
X18018Y23081D01*
X18031Y23071D01*
X18046Y23064D01*
X18062Y23062D01*
X18063Y23062D01*
X18079Y23064D01*
G37*
D10*
X18346Y28181D02*
X18398Y28181D01*
X18412Y28179D01*
X18425Y28174D01*
X18435Y28165D01*
X18444Y28155D01*
X18449Y28142D01*
X18451Y28128D01*
X18449Y28114D01*
X18444Y28102D01*
X18435Y28091D01*
X18425Y28082D01*
X18412Y28077D01*
X18398Y28075D01*
X18346Y28075D01*
X18346Y28265D01*
X18398Y28265D01*
X18410Y28263D01*
X18421Y28258D01*
X18430Y28251D01*
X18436Y28240D01*
X18440Y28229D01*
X18440Y28217D01*
X18436Y28206D01*
X18430Y28195D01*
X18421Y28188D01*
X18410Y28183D01*
X18398Y28181D01*
X18607Y28265D02*
X18619Y28263D01*
X18631Y28259D01*
X18641Y28251D01*
X18649Y28241D01*
X18653Y28229D01*
X18655Y28217D01*
X18607Y28265D02*
X18594Y28264D01*
X18582Y28260D01*
X18571Y28253D01*
X18562Y28245D01*
X18554Y28234D01*
X18549Y28223D01*
X18638Y28180D02*
X18647Y28191D01*
X18652Y28203D01*
X18654Y28217D01*
X18638Y28181D02*
X18549Y28075D01*
X18654Y28075D01*
X17571Y15615D02*
X17508Y15425D01*
X17634Y15425D02*
X17571Y15615D01*
X17618Y15473D02*
X17523Y15473D01*
X17744Y15425D02*
X17744Y15615D01*
X17797Y15615D01*
X17811Y15613D01*
X17824Y15608D01*
X17834Y15599D01*
X17843Y15589D01*
X17848Y15576D01*
X17850Y15562D01*
X17848Y15548D01*
X17843Y15536D01*
X17834Y15525D01*
X17824Y15516D01*
X17811Y15511D01*
X17797Y15509D01*
X17744Y15509D01*
X17807Y15509D02*
X17849Y15425D01*
X17965Y15425D02*
X17965Y15615D01*
X18017Y15615D01*
X18031Y15613D01*
X18044Y15608D01*
X18054Y15599D01*
X18063Y15589D01*
X18068Y15576D01*
X18070Y15562D01*
X18070Y15478D01*
X18068Y15464D01*
X18063Y15451D01*
X18054Y15441D01*
X18043Y15432D01*
X18031Y15427D01*
X18017Y15425D01*
X17965Y15425D01*
X18195Y15478D02*
X18195Y15615D01*
X18195Y15478D02*
X18197Y15464D01*
X18202Y15452D01*
X18211Y15441D01*
X18222Y15432D01*
X18234Y15427D01*
X18248Y15425D01*
X18262Y15427D01*
X18275Y15432D01*
X18285Y15441D01*
X18294Y15452D01*
X18299Y15464D01*
X18301Y15478D01*
X18300Y15478D02*
X18300Y15615D01*
X18428Y15615D02*
X18428Y15425D01*
X18407Y15425D02*
X18449Y15425D01*
X18449Y15615D02*
X18407Y15615D01*
X18555Y15615D02*
X18555Y15425D01*
X18660Y15425D02*
X18555Y15615D01*
X18660Y15615D02*
X18660Y15425D01*
X18778Y15478D02*
X18778Y15562D01*
X18780Y15576D01*
X18785Y15589D01*
X18794Y15599D01*
X18805Y15608D01*
X18817Y15613D01*
X18831Y15615D01*
X18845Y15613D01*
X18858Y15608D01*
X18868Y15599D01*
X18877Y15589D01*
X18882Y15576D01*
X18884Y15562D01*
X18884Y15478D01*
X18882Y15464D01*
X18877Y15452D01*
X18868Y15441D01*
X18858Y15432D01*
X18845Y15427D01*
X18831Y15425D01*
X18817Y15427D01*
X18805Y15432D01*
X18794Y15441D01*
X18785Y15452D01*
X18780Y15464D01*
X18778Y15478D01*
X18983Y15404D02*
X19068Y15404D01*
X19180Y15425D02*
X19180Y15615D01*
X19233Y15615D01*
X19247Y15613D01*
X19260Y15608D01*
X19270Y15599D01*
X19279Y15589D01*
X19284Y15576D01*
X19286Y15562D01*
X19284Y15548D01*
X19279Y15536D01*
X19270Y15525D01*
X19260Y15516D01*
X19247Y15511D01*
X19233Y15509D01*
X19180Y15509D01*
X19393Y15425D02*
X19393Y15615D01*
X19445Y15615D01*
X19459Y15613D01*
X19472Y15608D01*
X19482Y15599D01*
X19491Y15589D01*
X19496Y15576D01*
X19498Y15562D01*
X19496Y15548D01*
X19491Y15536D01*
X19482Y15525D01*
X19472Y15516D01*
X19459Y15511D01*
X19445Y15509D01*
X19393Y15509D01*
X19456Y15509D02*
X19498Y15425D01*
X19606Y15478D02*
X19606Y15562D01*
X19608Y15576D01*
X19613Y15589D01*
X19622Y15599D01*
X19633Y15608D01*
X19645Y15613D01*
X19659Y15615D01*
X19673Y15613D01*
X19686Y15608D01*
X19696Y15599D01*
X19705Y15589D01*
X19710Y15576D01*
X19712Y15562D01*
X19712Y15478D01*
X19710Y15464D01*
X19705Y15452D01*
X19696Y15441D01*
X19686Y15432D01*
X19673Y15427D01*
X19659Y15425D01*
X19645Y15427D01*
X19633Y15432D01*
X19622Y15441D01*
X19613Y15452D01*
X19608Y15464D01*
X19606Y15478D01*
X19811Y15404D02*
X19895Y15404D01*
X20006Y15425D02*
X20006Y15615D01*
X20069Y15509D01*
X20133Y15615D01*
X20133Y15425D01*
X20264Y15425D02*
X20264Y15615D01*
X20243Y15425D02*
X20285Y15425D01*
X20285Y15615D02*
X20243Y15615D01*
X20391Y15615D02*
X20391Y15425D01*
X20496Y15425D02*
X20391Y15615D01*
X20496Y15615D02*
X20496Y15425D01*
X20624Y15425D02*
X20624Y15615D01*
X20603Y15425D02*
X20645Y15425D01*
X20645Y15615D02*
X20603Y15615D01*
X20733Y15404D02*
X20817Y15404D01*
X20924Y15425D02*
X20924Y15615D01*
X20976Y15615D01*
X20990Y15613D01*
X21003Y15608D01*
X21013Y15599D01*
X21022Y15589D01*
X21027Y15576D01*
X21029Y15562D01*
X21029Y15478D01*
X21027Y15464D01*
X21022Y15451D01*
X21013Y15441D01*
X21002Y15432D01*
X20990Y15427D01*
X20976Y15425D01*
X20924Y15425D01*
X21155Y15425D02*
X21239Y15425D01*
X21155Y15425D02*
X21155Y15615D01*
X21239Y15615D01*
X21218Y15531D02*
X21155Y15531D01*
X21347Y15615D02*
X21347Y15425D01*
X21347Y15615D02*
X21400Y15615D01*
X21414Y15613D01*
X21427Y15608D01*
X21437Y15599D01*
X21446Y15589D01*
X21451Y15576D01*
X21453Y15562D01*
X21451Y15548D01*
X21446Y15536D01*
X21437Y15525D01*
X21427Y15516D01*
X21414Y15511D01*
X21400Y15509D01*
X21347Y15509D01*
X21560Y15425D02*
X21560Y15615D01*
X21539Y15425D02*
X21581Y15425D01*
X21581Y15615D02*
X21539Y15615D01*
X21687Y15615D02*
X21687Y15425D01*
X21792Y15425D02*
X21687Y15615D01*
X21792Y15615D02*
X21792Y15425D01*
D11*
X20240Y28161D02*
X20036Y28161D01*
X20036Y28621D01*
X20240Y28621D01*
X20189Y28416D02*
X20036Y28416D01*
X20511Y28161D02*
X20613Y28161D01*
X20511Y28161D02*
X20493Y28163D01*
X20476Y28167D01*
X20460Y28175D01*
X20445Y28185D01*
X20433Y28197D01*
X20423Y28212D01*
X20415Y28228D01*
X20411Y28245D01*
X20409Y28263D01*
X20409Y28518D01*
X20411Y28538D01*
X20417Y28557D01*
X20426Y28575D01*
X20439Y28590D01*
X20454Y28603D01*
X20472Y28612D01*
X20491Y28618D01*
X20511Y28620D01*
X20511Y28621D02*
X20613Y28621D01*
X20800Y28621D02*
X20800Y28288D01*
X20802Y28267D01*
X20807Y28246D01*
X20815Y28227D01*
X20827Y28209D01*
X20841Y28194D01*
X20858Y28181D01*
X20877Y28171D01*
X20897Y28164D01*
X20917Y28160D01*
X20939Y28160D01*
X20959Y28164D01*
X20979Y28171D01*
X20998Y28181D01*
X21015Y28194D01*
X21029Y28209D01*
X21041Y28227D01*
X21049Y28246D01*
X21054Y28267D01*
X21056Y28288D01*
X21055Y28288D02*
X21055Y28621D01*
D12*
X18344Y28490D02*
X18341Y28500D01*
X18346Y28497D02*
X18344Y28490D01*
X18348Y28490D02*
X18346Y28497D01*
X18350Y28500D02*
X18348Y28490D01*
X18354Y28490D02*
X18354Y28500D01*
X18353Y28490D02*
X18355Y28490D01*
X18353Y28500D02*
X18355Y28500D01*
X18359Y28500D02*
X18359Y28490D01*
X18359Y28500D02*
X18362Y28500D01*
X18364Y28499D01*
X18365Y28498D01*
X18365Y28496D01*
X18364Y28495D01*
X18362Y28494D01*
X18359Y28494D01*
X18362Y28494D02*
X18364Y28490D01*
X18368Y28490D02*
X18373Y28490D01*
X18368Y28490D02*
X18368Y28500D01*
X18373Y28500D01*
X18371Y28496D02*
X18368Y28496D01*
X18376Y28500D02*
X18376Y28490D01*
X18376Y28500D02*
X18379Y28500D01*
X18381Y28499D01*
X18382Y28498D01*
X18382Y28496D01*
X18381Y28495D01*
X18379Y28494D01*
X18376Y28494D01*
X18384Y28490D02*
X18387Y28500D01*
X18391Y28490D01*
X18390Y28493D02*
X18385Y28493D01*
X18394Y28490D02*
X18394Y28500D01*
X18397Y28500D01*
X18399Y28500D01*
X18400Y28499D01*
X18400Y28497D01*
X18400Y28493D01*
X18400Y28491D01*
X18398Y28490D01*
X18397Y28490D01*
X18394Y28490D01*
X18406Y28490D02*
X18407Y28490D01*
X18408Y28491D01*
X18408Y28492D01*
X18406Y28490D02*
X18404Y28490D01*
X18402Y28491D01*
X18403Y28498D02*
X18403Y28499D01*
X18404Y28500D01*
X18405Y28500D01*
X18407Y28499D01*
X18403Y28498D02*
X18403Y28497D01*
X18404Y28496D01*
X18407Y28494D02*
X18408Y28493D01*
X18408Y28492D01*
X18407Y28494D02*
X18404Y28496D01*
X18412Y28500D02*
X18412Y28490D01*
X18415Y28494D02*
X18412Y28500D01*
X18415Y28494D02*
X18419Y28500D01*
X18419Y28490D01*
X18423Y28490D02*
X18423Y28500D01*
X18426Y28500D01*
X18428Y28500D01*
X18429Y28499D01*
X18429Y28497D01*
X18428Y28497D02*
X18428Y28493D01*
X18429Y28493D02*
X18429Y28491D01*
X18427Y28490D01*
X18426Y28490D01*
X18423Y28490D01*
X18435Y28501D02*
X18437Y28501D01*
X18438Y28500D01*
X18438Y28498D01*
X18435Y28500D02*
X18433Y28499D01*
X18432Y28498D01*
X18437Y28496D02*
X18438Y28497D01*
X18438Y28498D01*
X18437Y28496D02*
X18432Y28490D01*
X18438Y28490D01*
X18441Y28490D02*
X18441Y28490D01*
X18441Y28491D01*
X18441Y28491D01*
X18441Y28490D01*
X18441Y28488D01*
X18445Y28490D02*
X18448Y28490D01*
X18449Y28490D01*
X18450Y28491D01*
X18450Y28492D01*
X18450Y28493D01*
X18450Y28494D01*
X18449Y28495D01*
X18448Y28495D01*
X18448Y28496D02*
X18445Y28496D01*
X18445Y28500D01*
X18450Y28500D01*
X18456Y28500D02*
X18454Y28492D01*
X18459Y28492D01*
X18458Y28494D02*
X18458Y28490D01*
X18463Y28494D02*
X18469Y28494D01*
X18473Y28490D02*
X18476Y28490D01*
X18477Y28490D01*
X18478Y28491D01*
X18478Y28492D01*
X18478Y28493D01*
X18478Y28494D01*
X18477Y28495D01*
X18476Y28495D01*
X18476Y28496D02*
X18473Y28496D01*
X18473Y28500D01*
X18478Y28500D01*
X18482Y28490D02*
X18482Y28490D01*
X18482Y28491D01*
X18482Y28491D01*
X18482Y28490D01*
X18481Y28488D01*
X18486Y28495D02*
X18487Y28499D01*
X18488Y28500D02*
X18487Y28500D01*
X18486Y28499D01*
X18488Y28500D02*
X18489Y28500D01*
X18490Y28499D01*
X18491Y28495D01*
X18486Y28495D02*
X18487Y28491D01*
X18486Y28491D02*
X18487Y28490D01*
X18488Y28490D01*
X18490Y28491D02*
X18491Y28495D01*
X18490Y28491D02*
X18489Y28490D01*
X18488Y28490D01*
X18486Y28492D02*
X18490Y28498D01*
X18494Y28493D02*
X18495Y28495D01*
X18496Y28496D01*
X18498Y28496D01*
X18499Y28495D01*
X18500Y28493D01*
X18499Y28491D01*
X18498Y28490D01*
X18496Y28490D01*
X18495Y28491D01*
X18494Y28493D01*
X18495Y28498D02*
X18495Y28499D01*
X18496Y28500D01*
X18498Y28500D01*
X18499Y28499D01*
X18499Y28498D01*
X18499Y28497D01*
X18498Y28496D01*
X18496Y28496D01*
X18495Y28497D01*
X18495Y28498D01*
D11*
X15234Y28129D02*
X15030Y28129D01*
X15030Y28589D01*
X15234Y28589D01*
X15183Y28385D02*
X15030Y28385D01*
X15501Y28589D02*
X15501Y28129D01*
X15374Y28589D02*
X15629Y28589D01*
X15809Y28589D02*
X15809Y28129D01*
X15809Y28385D02*
X16064Y28385D01*
X16064Y28589D02*
X16064Y28129D01*
D12*
X17500Y26510D02*
X17502Y26500D01*
X17504Y26507D01*
X17507Y26500D01*
X17509Y26510D01*
X17513Y26510D02*
X17513Y26500D01*
X17512Y26500D02*
X17514Y26500D01*
X17512Y26510D02*
X17514Y26510D01*
X17518Y26510D02*
X17518Y26500D01*
X17518Y26510D02*
X17520Y26510D01*
X17522Y26509D01*
X17523Y26508D01*
X17523Y26506D01*
X17522Y26505D01*
X17520Y26504D01*
X17518Y26504D01*
X17521Y26504D02*
X17523Y26500D01*
X17527Y26500D02*
X17531Y26500D01*
X17527Y26500D02*
X17527Y26510D01*
X17531Y26510D01*
X17530Y26506D02*
X17527Y26506D01*
X17535Y26510D02*
X17535Y26500D01*
X17535Y26510D02*
X17538Y26510D01*
X17540Y26509D01*
X17541Y26508D01*
X17541Y26506D01*
X17540Y26505D01*
X17538Y26504D01*
X17535Y26504D01*
X17543Y26500D02*
X17546Y26510D01*
X17549Y26500D01*
X17549Y26503D02*
X17544Y26503D01*
X17553Y26500D02*
X17553Y26510D01*
X17555Y26510D01*
X17557Y26510D01*
X17558Y26509D01*
X17558Y26507D01*
X17558Y26503D01*
X17558Y26501D01*
X17556Y26500D01*
X17555Y26500D01*
X17553Y26500D01*
X17565Y26500D02*
X17566Y26500D01*
X17567Y26501D01*
X17567Y26502D01*
X17565Y26500D02*
X17563Y26500D01*
X17561Y26501D01*
X17562Y26508D02*
X17562Y26509D01*
X17563Y26510D01*
X17564Y26510D01*
X17566Y26509D01*
X17562Y26508D02*
X17562Y26507D01*
X17563Y26506D01*
X17566Y26504D02*
X17567Y26503D01*
X17567Y26502D01*
X17566Y26504D02*
X17563Y26506D01*
X17571Y26510D02*
X17571Y26500D01*
X17574Y26504D02*
X17571Y26510D01*
X17574Y26504D02*
X17577Y26510D01*
X17577Y26500D01*
X17581Y26500D02*
X17581Y26510D01*
X17584Y26510D01*
X17586Y26510D01*
X17587Y26509D01*
X17587Y26507D01*
X17587Y26503D01*
X17587Y26501D01*
X17585Y26500D01*
X17584Y26500D01*
X17581Y26500D01*
X17597Y26508D02*
X17597Y26510D01*
X17596Y26511D01*
X17594Y26511D01*
X17594Y26510D02*
X17592Y26509D01*
X17591Y26508D01*
X17596Y26506D02*
X17597Y26507D01*
X17597Y26508D01*
X17595Y26506D02*
X17591Y26500D01*
X17596Y26500D01*
X17600Y26500D02*
X17600Y26500D01*
X17600Y26501D01*
X17600Y26501D01*
X17600Y26500D01*
X17599Y26498D01*
X17603Y26500D02*
X17607Y26500D01*
X17608Y26500D01*
X17609Y26501D01*
X17609Y26502D01*
X17609Y26503D01*
X17609Y26504D01*
X17608Y26505D01*
X17607Y26505D01*
X17607Y26506D02*
X17603Y26506D01*
X17603Y26510D01*
X17609Y26510D01*
X17615Y26510D02*
X17612Y26502D01*
X17618Y26502D01*
X17616Y26504D02*
X17616Y26500D01*
X17621Y26504D02*
X17628Y26504D01*
X17632Y26500D02*
X17635Y26500D01*
X17636Y26500D01*
X17637Y26501D01*
X17637Y26502D01*
X17637Y26503D01*
X17637Y26504D01*
X17636Y26505D01*
X17635Y26505D01*
X17635Y26506D02*
X17632Y26506D01*
X17632Y26510D01*
X17637Y26510D01*
X17641Y26500D02*
X17640Y26500D01*
X17640Y26501D01*
X17641Y26501D01*
X17641Y26500D01*
X17640Y26498D01*
X17644Y26505D02*
X17645Y26509D01*
X17646Y26510D01*
X17647Y26510D01*
X17648Y26510D01*
X17649Y26509D01*
X17648Y26509D02*
X17649Y26505D01*
X17644Y26505D02*
X17645Y26501D01*
X17646Y26500D01*
X17647Y26500D01*
X17648Y26501D02*
X17649Y26505D01*
X17649Y26501D02*
X17648Y26500D01*
X17647Y26500D01*
X17645Y26502D02*
X17649Y26508D01*
X17653Y26503D02*
X17654Y26505D01*
X17655Y26506D01*
X17657Y26506D01*
X17658Y26505D01*
X17659Y26503D01*
X17658Y26501D01*
X17657Y26500D01*
X17655Y26500D01*
X17654Y26501D01*
X17653Y26503D01*
X17654Y26508D02*
X17654Y26509D01*
X17655Y26510D01*
X17657Y26510D01*
X17658Y26509D01*
X17658Y26508D01*
X17658Y26507D01*
X17657Y26506D01*
X17655Y26506D01*
X17654Y26507D01*
X17654Y26508D01*
D11*
X21177Y21030D02*
X21177Y20570D01*
X21177Y21030D02*
X21305Y21030D01*
X21326Y21028D01*
X21347Y21023D01*
X21366Y21015D01*
X21384Y21003D01*
X21399Y20989D01*
X21412Y20972D01*
X21422Y20953D01*
X21429Y20933D01*
X21433Y20913D01*
X21433Y20891D01*
X21429Y20871D01*
X21422Y20851D01*
X21412Y20832D01*
X21399Y20815D01*
X21384Y20801D01*
X21366Y20789D01*
X21347Y20781D01*
X21326Y20776D01*
X21305Y20774D01*
X21177Y20774D01*
X21331Y20774D02*
X21433Y20570D01*
X21880Y20915D02*
X21878Y20935D01*
X21873Y20954D01*
X21865Y20973D01*
X21853Y20989D01*
X21839Y21003D01*
X21823Y21015D01*
X21804Y21023D01*
X21785Y21028D01*
X21765Y21030D01*
X21742Y21028D01*
X21719Y21023D01*
X21698Y21014D01*
X21678Y21002D01*
X21660Y20987D01*
X21645Y20969D01*
X21633Y20949D01*
X21624Y20928D01*
X21842Y20825D02*
X21855Y20840D01*
X21866Y20857D01*
X21874Y20876D01*
X21878Y20895D01*
X21880Y20915D01*
X21842Y20826D02*
X21624Y20570D01*
X21880Y20570D01*
X20772Y19680D02*
X20670Y19322D01*
X20926Y19322D01*
X20849Y19424D02*
X20849Y19220D01*
X21100Y19220D02*
X21100Y19246D01*
X21126Y19246D01*
X21126Y19220D01*
X21100Y19220D01*
X21300Y19629D02*
X21300Y19680D01*
X21556Y19680D01*
X21428Y19220D01*
X21766Y19220D02*
X21766Y19680D01*
X21970Y19527D02*
X21766Y19373D01*
X21855Y19437D02*
X21970Y19220D01*
X21127Y19970D02*
X21127Y20430D01*
X21255Y20430D01*
X21276Y20428D01*
X21297Y20423D01*
X21316Y20415D01*
X21334Y20403D01*
X21349Y20389D01*
X21362Y20372D01*
X21372Y20353D01*
X21379Y20333D01*
X21383Y20313D01*
X21383Y20291D01*
X21379Y20271D01*
X21372Y20251D01*
X21362Y20232D01*
X21349Y20215D01*
X21334Y20201D01*
X21316Y20189D01*
X21297Y20181D01*
X21276Y20176D01*
X21255Y20174D01*
X21127Y20174D01*
X21281Y20174D02*
X21383Y19970D01*
X21574Y19970D02*
X21702Y19970D01*
X21723Y19972D01*
X21744Y19977D01*
X21763Y19985D01*
X21781Y19997D01*
X21796Y20011D01*
X21809Y20028D01*
X21819Y20047D01*
X21826Y20067D01*
X21830Y20087D01*
X21830Y20109D01*
X21826Y20129D01*
X21819Y20149D01*
X21809Y20168D01*
X21796Y20185D01*
X21781Y20199D01*
X21763Y20211D01*
X21744Y20219D01*
X21723Y20224D01*
X21702Y20226D01*
X21728Y20430D02*
X21574Y20430D01*
X21728Y20430D02*
X21747Y20428D01*
X21765Y20423D01*
X21782Y20415D01*
X21797Y20403D01*
X21809Y20389D01*
X21819Y20373D01*
X21826Y20356D01*
X21830Y20337D01*
X21830Y20319D01*
X21826Y20300D01*
X21819Y20283D01*
X21809Y20267D01*
X21797Y20253D01*
X21782Y20241D01*
X21765Y20233D01*
X21747Y20228D01*
X21728Y20226D01*
X21626Y20226D01*
X18620Y25270D02*
X18620Y25730D01*
X18748Y25730D01*
X18769Y25728D01*
X18790Y25723D01*
X18809Y25715D01*
X18827Y25703D01*
X18842Y25689D01*
X18855Y25672D01*
X18865Y25653D01*
X18872Y25633D01*
X18876Y25613D01*
X18876Y25591D01*
X18872Y25571D01*
X18865Y25551D01*
X18855Y25532D01*
X18842Y25515D01*
X18827Y25501D01*
X18809Y25489D01*
X18790Y25481D01*
X18769Y25476D01*
X18748Y25474D01*
X18620Y25474D01*
X18773Y25474D02*
X18876Y25270D01*
X19067Y25372D02*
X19169Y25730D01*
X19067Y25372D02*
X19323Y25372D01*
X19246Y25474D02*
X19246Y25270D01*
X17970Y24037D02*
X18072Y23910D01*
X17970Y24037D02*
X18430Y24037D01*
X18430Y23910D02*
X18430Y24165D01*
X18200Y24360D02*
X18166Y24362D01*
X18132Y24366D01*
X18098Y24374D01*
X18065Y24385D01*
X18034Y24398D01*
X18034Y24397D02*
X18019Y24404D01*
X18005Y24413D01*
X17993Y24425D01*
X17983Y24439D01*
X17976Y24454D01*
X17971Y24470D01*
X17970Y24487D01*
X17971Y24504D01*
X17976Y24520D01*
X17983Y24535D01*
X17993Y24549D01*
X18005Y24561D01*
X18019Y24570D01*
X18034Y24577D01*
X18065Y24590D01*
X18098Y24601D01*
X18132Y24609D01*
X18166Y24613D01*
X18200Y24615D01*
X18200Y24360D02*
X18234Y24362D01*
X18268Y24366D01*
X18302Y24374D01*
X18335Y24385D01*
X18366Y24398D01*
X18366Y24397D02*
X18381Y24404D01*
X18395Y24413D01*
X18407Y24425D01*
X18417Y24439D01*
X18424Y24454D01*
X18429Y24470D01*
X18430Y24487D01*
X18366Y24577D02*
X18335Y24590D01*
X18302Y24601D01*
X18268Y24609D01*
X18234Y24613D01*
X18200Y24615D01*
X18366Y24577D02*
X18381Y24570D01*
X18395Y24561D01*
X18407Y24549D01*
X18417Y24535D01*
X18424Y24520D01*
X18429Y24504D01*
X18430Y24487D01*
X18328Y24385D02*
X18072Y24590D01*
X17970Y24826D02*
X18430Y24826D01*
X18277Y24826D02*
X18123Y25030D01*
X18213Y24915D02*
X18430Y25030D01*
D13*
X18331Y22000D02*
X18669Y22000D01*
X18669Y23000D02*
X18331Y23000D01*
D10*
X18336Y23328D02*
X18336Y23465D01*
X18335Y23328D02*
X18337Y23314D01*
X18342Y23302D01*
X18351Y23291D01*
X18362Y23282D01*
X18374Y23277D01*
X18388Y23275D01*
X18402Y23277D01*
X18415Y23282D01*
X18425Y23291D01*
X18434Y23302D01*
X18439Y23314D01*
X18441Y23328D01*
X18441Y23465D01*
X18559Y23423D02*
X18612Y23465D01*
X18612Y23275D01*
X18664Y23275D02*
X18559Y23275D01*
X17801Y21715D02*
X17801Y21525D01*
X17864Y21609D02*
X17801Y21715D01*
X17864Y21609D02*
X17928Y21715D01*
X17928Y21525D01*
X18090Y21525D02*
X18133Y21525D01*
X18090Y21525D02*
X18079Y21526D01*
X18069Y21531D01*
X18060Y21537D01*
X18054Y21546D01*
X18049Y21556D01*
X18048Y21567D01*
X18048Y21673D01*
X18049Y21684D01*
X18054Y21694D01*
X18060Y21703D01*
X18069Y21709D01*
X18079Y21714D01*
X18090Y21715D01*
X18133Y21715D01*
X18242Y21715D02*
X18242Y21525D01*
X18242Y21715D02*
X18295Y21715D01*
X18309Y21713D01*
X18322Y21708D01*
X18332Y21699D01*
X18341Y21689D01*
X18346Y21676D01*
X18348Y21662D01*
X18346Y21648D01*
X18341Y21636D01*
X18332Y21625D01*
X18322Y21616D01*
X18309Y21611D01*
X18295Y21609D01*
X18242Y21609D01*
X18445Y21567D02*
X18488Y21715D01*
X18445Y21567D02*
X18551Y21567D01*
X18519Y21609D02*
X18519Y21525D01*
X18661Y21694D02*
X18661Y21715D01*
X18767Y21715D01*
X18714Y21525D01*
X18935Y21715D02*
X18947Y21713D01*
X18959Y21709D01*
X18969Y21701D01*
X18977Y21691D01*
X18981Y21679D01*
X18983Y21667D01*
X18935Y21715D02*
X18922Y21714D01*
X18910Y21710D01*
X18899Y21703D01*
X18890Y21695D01*
X18882Y21684D01*
X18877Y21673D01*
X18967Y21630D02*
X18976Y21641D01*
X18981Y21653D01*
X18983Y21667D01*
X18967Y21631D02*
X18877Y21525D01*
X18983Y21525D01*
X19093Y21525D02*
X19157Y21525D01*
X19168Y21526D01*
X19178Y21531D01*
X19187Y21537D01*
X19193Y21546D01*
X19198Y21556D01*
X19199Y21567D01*
X19199Y21588D01*
X19198Y21599D01*
X19193Y21609D01*
X19187Y21618D01*
X19178Y21624D01*
X19168Y21629D01*
X19157Y21630D01*
X19157Y21631D02*
X19093Y21631D01*
X19093Y21715D01*
X19199Y21715D01*
D13*
X17200Y22500D02*
X16800Y22500D01*
D14*
X16595Y22021D02*
X16595Y21963D01*
X16594Y21950D01*
X16589Y21938D01*
X16582Y21927D01*
X16573Y21918D01*
X16562Y21911D01*
X16550Y21906D01*
X16537Y21905D01*
X16393Y21905D01*
X16380Y21906D01*
X16368Y21911D01*
X16357Y21918D01*
X16348Y21927D01*
X16341Y21938D01*
X16336Y21950D01*
X16335Y21963D01*
X16335Y22021D01*
X16335Y22226D02*
X16337Y22240D01*
X16341Y22254D01*
X16349Y22267D01*
X16359Y22277D01*
X16372Y22285D01*
X16386Y22289D01*
X16400Y22291D01*
X16335Y22226D02*
X16337Y22209D01*
X16342Y22192D01*
X16351Y22177D01*
X16363Y22164D01*
X16377Y22153D01*
X16393Y22146D01*
X16451Y22269D02*
X16440Y22278D01*
X16428Y22285D01*
X16414Y22290D01*
X16400Y22291D01*
X16451Y22269D02*
X16595Y22146D01*
X16595Y22291D01*
D15*
X16580Y22568D02*
X16563Y22569D01*
X16546Y22573D01*
X16530Y22580D01*
X16522Y22584D01*
X16515Y22590D01*
X16511Y22598D01*
X16510Y22607D01*
X16511Y22616D01*
X16515Y22624D01*
X16522Y22630D01*
X16530Y22634D01*
X16530Y22633D02*
X16546Y22640D01*
X16563Y22644D01*
X16580Y22645D01*
X16580Y22568D02*
X16597Y22569D01*
X16614Y22573D01*
X16630Y22580D01*
X16638Y22584D01*
X16645Y22590D01*
X16649Y22598D01*
X16650Y22607D01*
X16630Y22633D02*
X16614Y22640D01*
X16597Y22644D01*
X16580Y22645D01*
X16630Y22634D02*
X16638Y22630D01*
X16645Y22624D01*
X16649Y22616D01*
X16650Y22607D01*
X16619Y22575D02*
X16541Y22638D01*
X16642Y22703D02*
X16650Y22703D01*
X16642Y22703D02*
X16642Y22711D01*
X16650Y22711D01*
X16650Y22703D01*
X16541Y22769D02*
X16510Y22808D01*
X16650Y22808D01*
X16650Y22769D02*
X16650Y22847D01*
X16627Y22916D02*
X16557Y22916D01*
X16627Y22917D02*
X16634Y22918D01*
X16641Y22921D01*
X16646Y22926D01*
X16649Y22933D01*
X16650Y22940D01*
X16650Y22978D01*
X16557Y22978D01*
X16510Y23053D02*
X16650Y23053D01*
X16510Y23053D02*
X16510Y23115D01*
X16572Y23115D02*
X16572Y23053D01*
M02*
